<mxfile host="65bd71144e">
    <diagram id="jvSaRyRy9VlixMWbLIwb" name="Page-1">
        <mxGraphModel dx="817" dy="590" grid="1" gridSize="10" guides="1" tooltips="1" connect="1" arrows="1" fold="1" page="1" pageScale="1" pageWidth="850" pageHeight="1100" math="0" shadow="0">
            <root>
                <mxCell id="0"/>
                <mxCell id="1" parent="0"/>
                <mxCell id="103" value="" style="rounded=0;whiteSpace=wrap;html=1;fillColor=#FCFCFC;" parent="1" vertex="1">
                    <mxGeometry x="50" y="300" width="730" height="280" as="geometry"/>
                </mxCell>
                <mxCell id="45" style="edgeStyle=none;html=1;fontColor=#000000;labelBorderColor=none;strokeColor=#000000;" parent="1" source="55" target="81" edge="1">
                    <mxGeometry relative="1" as="geometry">
                        <mxPoint x="315" y="410" as="sourcePoint"/>
                        <mxPoint x="380" y="410" as="targetPoint"/>
                    </mxGeometry>
                </mxCell>
                <mxCell id="55" value="App Idle or Playing" style="rounded=1;whiteSpace=wrap;html=1;arcSize=19;fillColor=none;fontColor=#000000;strokeColor=#000000;" parent="1" vertex="1">
                    <mxGeometry x="128" y="375" width="100" height="60" as="geometry"/>
                </mxCell>
                <mxCell id="58" style="edgeStyle=none;html=1;exitX=1;exitY=0.5;exitDx=0;exitDy=0;entryX=0;entryY=0.5;entryDx=0;entryDy=0;fontColor=#000000;labelBorderColor=none;strokeColor=#000000;" parent="1" source="57" target="55" edge="1">
                    <mxGeometry relative="1" as="geometry"/>
                </mxCell>
                <mxCell id="57" value="" style="ellipse;fillColor=#000000;strokeColor=none;fontColor=#000000;" parent="1" vertex="1">
                    <mxGeometry x="78" y="395" width="20" height="20" as="geometry"/>
                </mxCell>
                <mxCell id="64" value="&lt;b&gt;Create&lt;/b&gt;&lt;br&gt;&lt;div&gt;&lt;span&gt;/n = n+1&amp;nbsp;&lt;/span&gt;&lt;/div&gt;" style="text;html=1;align=left;verticalAlign=middle;resizable=0;points=[];autosize=1;strokeColor=none;fillColor=none;fontColor=#000000;" parent="1" vertex="1">
                    <mxGeometry x="232" y="371" width="60" height="30" as="geometry"/>
                </mxCell>
                <mxCell id="67" value="&lt;div style=&quot;text-align: left&quot;&gt;&lt;br&gt;&lt;/div&gt;" style="text;html=1;align=center;verticalAlign=middle;resizable=0;points=[];autosize=1;strokeColor=none;fillColor=none;fontColor=#000000;" parent="1" vertex="1">
                    <mxGeometry x="435" y="540" width="20" height="20" as="geometry"/>
                </mxCell>
                <mxCell id="79" value="&lt;div style=&quot;text-align: left&quot;&gt;&lt;b&gt;Save Title&lt;br&gt;&lt;/b&gt;&lt;span style=&quot;font-size: 11px&quot;&gt;/title = &quot;New Project&quot;&lt;/span&gt;&lt;b&gt;&lt;br&gt;&lt;/b&gt;&lt;/div&gt;" style="text;html=1;align=center;verticalAlign=middle;resizable=0;points=[];autosize=1;strokeColor=none;fillColor=none;fontColor=#000000;" parent="1" vertex="1">
                    <mxGeometry x="220" y="462" width="120" height="30" as="geometry"/>
                </mxCell>
                <mxCell id="107" style="edgeStyle=none;html=1;strokeColor=#000000;" parent="1" source="81" target="106" edge="1">
                    <mxGeometry relative="1" as="geometry"/>
                </mxCell>
                <mxCell id="114" style="edgeStyle=none;html=1;entryX=0.75;entryY=1;entryDx=0;entryDy=0;strokeColor=#000000;" parent="1" source="81" target="55" edge="1">
                    <mxGeometry relative="1" as="geometry">
                        <Array as="points">
                            <mxPoint x="335" y="460"/>
                            <mxPoint x="203" y="460"/>
                        </Array>
                    </mxGeometry>
                </mxCell>
                <mxCell id="81" value="Project&lt;br&gt;Created" style="rounded=1;whiteSpace=wrap;html=1;fillColor=none;fontColor=#000000;strokeColor=#000000;" parent="1" vertex="1">
                    <mxGeometry x="290" y="375" width="90" height="60" as="geometry"/>
                </mxCell>
                <mxCell id="110" style="edgeStyle=none;html=1;strokeColor=#000000;" parent="1" source="106" target="109" edge="1">
                    <mxGeometry relative="1" as="geometry"/>
                </mxCell>
                <mxCell id="106" value="Project&lt;br&gt;Title Edition" style="rounded=1;whiteSpace=wrap;html=1;fillColor=none;fontColor=#000000;strokeColor=#000000;" parent="1" vertex="1">
                    <mxGeometry x="472" y="375" width="90" height="60" as="geometry"/>
                </mxCell>
                <mxCell id="113" style="edgeStyle=none;html=1;strokeColor=#000000;exitX=0.5;exitY=1;exitDx=0;exitDy=0;entryX=0.25;entryY=1;entryDx=0;entryDy=0;" parent="1" source="109" target="55" edge="1">
                    <mxGeometry relative="1" as="geometry">
                        <Array as="points">
                            <mxPoint x="692" y="520"/>
                            <mxPoint x="153" y="520"/>
                        </Array>
                    </mxGeometry>
                </mxCell>
                <mxCell id="127" style="edgeStyle=none;html=1;entryX=0.5;entryY=1;entryDx=0;entryDy=0;exitX=0.5;exitY=1;exitDx=0;exitDy=0;strokeColor=#000000;" parent="1" source="106" target="55" edge="1">
                    <mxGeometry relative="1" as="geometry">
                        <Array as="points">
                            <mxPoint x="517" y="500"/>
                            <mxPoint x="178" y="500"/>
                        </Array>
                    </mxGeometry>
                </mxCell>
                <mxCell id="109" value="Project Title Edited" style="rounded=1;whiteSpace=wrap;html=1;fillColor=none;fontColor=#000000;strokeColor=#000000;" parent="1" vertex="1">
                    <mxGeometry x="647" y="375" width="90" height="60" as="geometry"/>
                </mxCell>
                <mxCell id="119" value="&lt;b&gt;Submit&lt;/b&gt;" style="text;html=1;align=left;verticalAlign=middle;resizable=0;points=[];autosize=1;strokeColor=none;fillColor=none;fontColor=#000000;" parent="1" vertex="1">
                    <mxGeometry x="580" y="406.99999999999994" width="60" height="20" as="geometry"/>
                </mxCell>
                <mxCell id="122" style="edgeStyle=orthogonalEdgeStyle;html=1;strokeColor=#000000;entryX=0.629;entryY=-0.007;entryDx=0;entryDy=0;entryPerimeter=0;curved=1;" parent="1" target="106" edge="1">
                    <mxGeometry relative="1" as="geometry">
                        <Array as="points">
                            <mxPoint x="500" y="350"/>
                            <mxPoint x="529" y="350"/>
                        </Array>
                        <mxPoint x="500" y="375" as="sourcePoint"/>
                    </mxGeometry>
                </mxCell>
                <mxCell id="123" value="&lt;b&gt;Valid &lt;br&gt;Keyboard &lt;br&gt;Input&lt;/b&gt;&lt;br&gt;&lt;div&gt;&lt;br&gt;&lt;/div&gt;" style="text;html=1;align=left;verticalAlign=middle;resizable=0;points=[];autosize=1;strokeColor=none;fillColor=none;fontColor=#000000;" parent="1" vertex="1">
                    <mxGeometry x="540" y="321.99999999999994" width="70" height="60" as="geometry"/>
                </mxCell>
                <mxCell id="128" value="&lt;b&gt;Edit Title&lt;br&gt;&lt;/b&gt;" style="text;html=1;align=left;verticalAlign=middle;resizable=0;points=[];autosize=1;strokeColor=none;fillColor=none;fontColor=#000000;" parent="1" vertex="1">
                    <mxGeometry x="392" y="409.99999999999994" width="70" height="20" as="geometry"/>
                </mxCell>
                <mxCell id="130" value="&lt;b&gt;Discard Title&lt;/b&gt;" style="text;html=1;align=left;verticalAlign=middle;resizable=0;points=[];autosize=1;strokeColor=none;fillColor=none;fontColor=#000000;" parent="1" vertex="1">
                    <mxGeometry x="520" y="449.99999999999994" width="90" height="20" as="geometry"/>
                </mxCell>
                <mxCell id="136" value="&lt;div style=&quot;text-align: left&quot;&gt;&lt;b&gt;Save Title&lt;br&gt;&lt;/b&gt;&lt;span style=&quot;font-size: 11px&quot;&gt;/title = input&lt;/span&gt;&lt;b&gt;&lt;br&gt;&lt;/b&gt;&lt;/div&gt;" style="text;html=1;align=center;verticalAlign=middle;resizable=0;points=[];autosize=1;strokeColor=none;fillColor=none;fontColor=#000000;" parent="1" vertex="1">
                    <mxGeometry x="410" y="530" width="70" height="30" as="geometry"/>
                </mxCell>
            </root>
        </mxGraphModel>
    </diagram>
</mxfile>